<svg width="10" height="10" viewBox="0 0 10 10" fill="none" xmlns="http://www.w3.org/2000/svg">
<path fill-rule="evenodd" clip-rule="evenodd" d="M8.68721 9.60909C8.94175 9.86362 9.35443 9.86362 9.60897 9.60909C9.86359 9.35455 9.86359 8.94178 9.60897 8.68725L5.92178 4.99998L9.60905 1.31272C9.86359 1.05817 9.86359 0.645464 9.60905 0.390911C9.35443 0.136359 8.94175 0.136359 8.68721 0.390911L4.99994 4.07814L1.31268 0.390919C1.05813 0.136367 0.645418 0.136367 0.390865 0.390919C0.136313 0.645472 0.136313 1.05819 0.390865 1.31274L4.0781 4.99998L0.390874 8.68725C0.136321 8.94178 0.136321 9.35447 0.390874 9.60909C0.645426 9.86362 1.05813 9.86362 1.31269 9.60909L4.99994 5.92182L8.68721 9.60909Z" fill="#3F434A"/>
</svg>
